<?xml version="1.0" standalone="no"?>
<!DOCTYPE svg PUBLIC "-//W3C//DTD SVG 20010904//EN"
 "http://www.w3.org/TR/2001/REC-SVG-20010904/DTD/svg10.dtd">
<svg version="1.0" xmlns="http://www.w3.org/2000/svg"
 width="271.000000pt" height="271.000000pt" viewBox="0 0 271.000000 271.000000"
 preserveAspectRatio="xMidYMid meet">
<metadata>
Created by potrace 1.14, written by Peter Selinger 2001-2017
</metadata>
<g transform="translate(0.000000,271.000000) scale(0.100000,-0.100000)"
fill="#000000" stroke="none">
<path d="M1214 2691 c-171 -56 -295 -208 -310 -380 -2 -31 -6 -79 -9 -106 -9
-101 -54 -191 -134 -270 -85 -84 -178 -124 -296 -130 -105 -6 -144 -14 -212
-46 -90 -43 -162 -113 -208 -204 -34 -66 -39 -86 -43 -161 -3 -49 1 -111 8
-143 33 -152 162 -286 315 -325 150 -40 295 -6 409 95 94 83 143 188 152 324
9 146 39 227 115 313 90 103 194 152 329 157 147 5 264 -45 364 -156 74 -83
111 -181 115 -309 4 -122 49 -226 134 -311 49 -49 138 -102 193 -115 232 -53
449 60 535 278 58 147 16 348 -98 464 -84 85 -192 134 -299 135 -74 1 -175 24
-233 53 -28 15 -78 53 -110 84 -90 89 -130 182 -137 317 -5 100 -12 130 -47
204 -91 195 -329 298 -533 232z"/>
<path d="M1285 889 c-266 -44 -433 -301 -364 -563 40 -149 186 -287 336 -316
62 -12 189 -5 233 12 106 41 176 96 231 181 149 229 61 531 -188 652 -43 20
-84 30 -173 40 -14 1 -47 -1 -75 -6z"/>
</g>
</svg>
